HIERARCHY
ROOT Hips
{
 OFFSET 0.000000 0.000000 0.000000
 CHANNELS 6 Xposition Yposition Zposition Yrotation Xrotation Zrotation
 JOINT Chest
 {
  OFFSET 0.000000 10.265206 0.006595
  CHANNELS 3 Yrotation Xrotation Zrotation
  JOINT Chest2
  {
   OFFSET 0.000000 11.389044 -0.011980
   CHANNELS 3 Yrotation Xrotation Zrotation
   JOINT Chest3
   {
    OFFSET 0.000000 10.290982 0.000000
    CHANNELS 3 Yrotation Xrotation Zrotation
    JOINT Chest4
    {
     OFFSET 0.000000 10.290982 0.000000
     CHANNELS 3 Yrotation Xrotation Zrotation
     JOINT Neck
     {
      OFFSET 0.000000 14.367993 0.000000
      CHANNELS 3 Yrotation Xrotation Zrotation
      JOINT Head
      {
       OFFSET 0.000000 9.574020 -0.028490
       CHANNELS 3 Yrotation Xrotation Zrotation
       End Site
       {
        OFFSET 0.000000 18.400023 -0.014881
       }
      }
     }
     JOINT RightCollar
     {
      OFFSET -3.015571 8.009391 0.000000
      CHANNELS 3 Yrotation Xrotation Zrotation
      JOINT RightShoulder
      {
       OFFSET -13.867120 0.000000 0.000000
       CHANNELS 3 Yrotation Xrotation Zrotation
       JOINT RightElbow
       {
        OFFSET -29.171974 0.000000 0.000000
        CHANNELS 3 Yrotation Xrotation Zrotation
        JOINT RightWrist
        {
         OFFSET -24.013854 0.000000 0.006497
         CHANNELS 3 Yrotation Xrotation Zrotation
         End Site
         {
          OFFSET -18.051397 0.000000 0.000000
         }
        }
       }
      }
     }
     JOINT LeftCollar
     {
      OFFSET 3.015571 8.009391 0.000000
      CHANNELS 3 Yrotation Xrotation Zrotation
      JOINT LeftShoulder
      {
       OFFSET 13.867120 0.000000 0.000000
       CHANNELS 3 Yrotation Xrotation Zrotation
       JOINT LeftElbow
       {
        OFFSET 29.171974 0.000000 0.000000
        CHANNELS 3 Yrotation Xrotation Zrotation
        JOINT LeftWrist
        {
         OFFSET 24.013854 0.000000 0.006497
         CHANNELS 3 Yrotation Xrotation Zrotation
         End Site
         {
          OFFSET 18.051397 0.000000 0.000000
         }
        }
       }
      }
     }
    }
   }
  }
 }
 JOINT RightHip
 {
  OFFSET -8.283980 -0.032318 -0.003298
  CHANNELS 3 Yrotation Xrotation Zrotation
  JOINT RightKnee
  {
   OFFSET 0.000000 -43.567000 0.003120
   CHANNELS 3 Yrotation Xrotation Zrotation
   JOINT RightAnkle
   {
    OFFSET 0.000000 -42.556413 0.005276
    CHANNELS 3 Yrotation Xrotation Zrotation
    JOINT RightToe
    {
     OFFSET 0.000000 -7.926623 17.954935
     CHANNELS 3 Yrotation Xrotation Zrotation
     End Site
     {
      OFFSET 0.000000 -1.555762 6.841994
     }
    }
   }
  }
 }
 JOINT LeftHip
 {
  OFFSET 8.283980 -0.032318 -0.003298
  CHANNELS 3 Yrotation Xrotation Zrotation
  JOINT LeftKnee
  {
   OFFSET 0.000000 -43.567000 0.003120
   CHANNELS 3 Yrotation Xrotation Zrotation
   JOINT LeftAnkle
   {
    OFFSET 0.000000 -42.556413 0.005276
    CHANNELS 3 Yrotation Xrotation Zrotation
    JOINT LeftToe
    {
     OFFSET 0.000000 -7.926623 17.954935
     CHANNELS 3 Yrotation Xrotation Zrotation
     End Site
     {
      OFFSET 0.000000 -1.555762 6.841994
     }
    }
   }
  }
 }
}
MOTION
Frames: 17
Frame Time: 0.033333
0.000000 93.892266 0.000000 0.000000 -5.826342 0.000000 0.000000 11.116423 0.000000 0.000000 -5.290081 0.000000 0.000000 0.000000 0.000000 0.000000 0.000000 0.000000 0.000000 12.665069 0.000000 0.000000 0.575450 0.000000 0.000000 0.000000 0.000000 0.000000 0.000000 0.000000 2.337306 0.000000 0.000000 -2.337306 0.000000 0.000000 0.000000 0.000000 0.000000 0.000000 0.000000 0.000000 -2.337306 0.000000 0.000000 2.337306 0.000000 0.000000 0.000000 8.578828 0.000000 0.000000 1.905768 0.000000 0.000000 -4.658254 0.000000 0.000000 0.000000 0.000000 0.000000 8.578828 0.000000 0.000000 1.905768 0.000000 0.000000 -4.658254 0.000000 0.000000 0.000000 0.000000
-8.577455 95.842167 11.292516 -77.544948 -5.781543 -0.252234 0.267342 3.385047 0.151559 0.172599 2.117008 0.093996 0.137788 1.693629 0.074680 0.103127 1.270239 0.055624 -0.806341 19.104882 0.003596 -0.853143 -5.846083 0.189162 0.142649 1.515817 10.918953 3.865285 -6.183209 74.506175 2.905248 31.189196 -8.192195 0.166317 0.796219 0.025165 -1.446435 1.064368 -10.637425 -4.343239 -5.622685 -74.020906 -4.990046 21.974711 6.177850 -2.261572 4.787086 -8.894856 -13.877259 10.172457 -3.495689 -7.054017 -0.833944 -0.599659 3.357932 -3.258934 1.372289 -0.012205 0.009090 -0.007983 7.449892 8.293789 4.147403 11.329627 0.473429 0.823036 -1.276743 -2.869448 -2.123997 0.001984 0.000698 0.004243
-8.571296 95.841927 11.302819 -77.546169 -5.786544 -0.249581 0.274132 3.385282 0.146726 0.175176 2.116640 0.087700 0.139868 1.693334 0.069635 0.104700 1.270016 0.051835 -0.803657 19.114425 0.007718 -0.851289 -5.835434 0.192907 0.140905 1.527928 10.912900 3.859585 -6.199132 74.487486 2.914148 31.170163 -8.189551 0.183279 0.834565 0.035612 -1.470085 1.053790 -10.653450 -4.340628 -5.629372 -73.962805 -4.963169 21.981755 6.158008 -2.282392 4.727748 -8.909127 -13.846004 10.159792 -3.492564 -7.118571 -0.811832 -0.621920 3.400533 -3.268488 1.390326 -0.013113 0.009349 -0.006952 7.388370 8.280234 4.134408 11.377228 0.512134 0.810288 -1.263865 -2.892682 -2.106270 0.011866 0.002020 0.005828
-8.565972 95.838913 11.300100 -77.561287 -5.781490 -0.249173 0.284691 3.387991 0.134030 0.180595 2.117693 0.078731 0.144229 1.694175 0.062445 0.107991 1.270646 0.046430 -0.806577 19.113448 0.012282 -0.855424 -5.836479 0.198402 0.127177 1.515494 10.915028 3.874432 -6.207395 74.496982 2.885676 31.140014 -8.239538 0.146592 0.850255 0.069240 -1.508078 1.036615 -10.633246 -4.305286 -5.631859 -73.936646 -5.003272 21.991421 6.135785 -2.293877 4.734137 -8.884223 -13.825103 10.167112 -3.484638 -7.145423 -0.851665 -0.623696 3.426383 -3.256393 1.395547 -0.014727 0.017763 -0.009753 7.397929 8.246359 4.140253 11.385320 0.561787 0.802099 -1.262052 -2.921237 -2.100296 0.016210 0.005442 0.007627
-8.558517 95.836475 11.321955 -77.573562 -5.792358 -0.244174 0.297704 3.386279 0.119843 0.187309 2.116378 0.074522 0.149613 1.693122 0.059059 0.112038 1.269856 0.043876 -0.841081 19.128124 0.024860 -0.894883 -5.819648 0.219643 0.059834 1.513361 10.916916 3.914655 -6.192332 74.476523 2.836619 31.097879 -8.281310 0.146843 0.840325 0.070234 -1.499794 1.051292 -10.639792 -4.297711 -5.651804 -73.945362 -4.986122 22.028287 6.150594 -2.309740 4.623440 -8.802804 -13.798696 10.160958 -3.514732 -7.095632 -0.840658 -0.608973 3.370499 -3.252680 1.412894 -0.017259 0.013406 -0.014201 7.313274 8.259976 4.103685 11.468320 0.564554 0.812929 -1.243271 -2.927132 -2.089762 0.015463 0.006791 0.006767
-8.549117 95.836994 11.340467 -77.606605 -5.799894 -0.237940 0.317336 3.376753 0.121237 0.196670 2.110555 0.074571 0.157101 1.688465 0.059071 0.117654 1.266364 0.043866 -0.858646 19.136677 0.010604 -0.910223 -5.809938 0.208616 0.052078 1.493073 10.893713 3.852540 -6.163655 74.468470 2.778595 31.135910 -8.332243 0.178598 0.795442 0.060245 -1.526253 1.056605 -10.675900 -4.303644 -5.672983 -73.909706 -4.954276 21.999923 6.114679 -2.311555 4.646300 -8.792363 -13.791633 10.136979 -3.534115 -7.055789 -0.821784 -0.608152 3.339008 -3.251672 1.425325 -0.010659 0.012799 -0.013491 7.291407 8.278515 4.091824 11.487141 0.559753 0.784553 -1.206388 -2.928666 -2.063832 0.014075 0.006088 0.008163
-8.551692 95.837041 11.350475 -77.644701 -5.800027 -0.231575 0.320638 3.378985 0.110383 0.198472 2.111178 0.068514 0.158560 1.688961 0.054220 0.118762 1.266735 0.040224 -0.847608 19.133244 0.010900 -0.898597 -5.813901 0.206388 0.091733 1.472276 10.867987 3.773239 -6.180189 74.482499 2.748346 31.177032 -8.344028 0.158163 0.781829 0.073157 -1.483806 1.045131 -10.683906 -4.315792 -5.676463 -73.913818 -4.964564 22.018696 6.116149 -2.283473 4.653012 -8.828222 -13.851932 10.127256 -3.560648 -6.967597 -0.834880 -0.614462 3.357539 -3.243103 1.449258 -0.010551 0.008465 -0.016431 7.329950 8.274560 4.082934 11.455162 0.581072 0.781376 -1.181780 -2.943897 -2.051756 0.018150 0.004939 0.007306
-8.549007 95.828521 11.376150 -77.665087 -5.765895 -0.213380 0.315281 3.376308 0.099367 0.196995 2.108855 0.060036 0.157405 1.687100 0.047444 0.117914 1.265338 0.035146 -0.830934 19.117541 0.004503 -0.879419 -5.831663 0.195783 0.091656 1.429287 10.875625 3.747791 -6.167570 74.496704 2.714986 31.175976 -8.392840 0.165691 0.786124 0.103242 -1.488703 0.999231 -10.667932 -4.298861 -5.659402 -73.986853 -4.973759 22.063381 6.140047 -2.288009 4.600279 -8.823216 -13.923726 10.083293 -3.629221 -6.939832 -0.845755 -0.573815 3.423183 -3.252300 1.502172 -0.017209 0.020365 -0.041324 7.335262 8.194477 4.063223 11.472570 0.698215 0.772399 -1.198651 -3.017960 -2.027154 0.019122 0.006993 0.003881
-8.535430 95.824556 11.397224 -77.664521 -5.755331 -0.205023 0.298415 3.359161 0.084997 0.187554 2.099598 0.049206 0.149885 1.679692 0.038811 0.112299 1.259778 0.028694 -0.832306 19.147267 0.010560 -0.882381 -5.798395 0.202515 0.095806 1.453654 10.898196 3.729457 -6.175892 74.493800 2.669684 31.164155 -8.431563 0.149258 0.840779 0.097603 -1.502413 1.059083 -10.662942 -4.364923 -5.685239 -73.997154 -4.978693 21.950491 6.159322 -2.259291 4.644472 -8.863260 -13.956229 10.028993 -3.673937 -6.922948 -0.795582 -0.561890 3.451725 -3.268871 1.567227 -0.021486 0.017670 -0.058254 7.380774 8.105785 4.047163 11.394694 0.830019 0.795797 -1.167955 -3.080978 -2.018695 0.026120 0.006272 0.004928
-8.517484 95.825468 11.436543 -77.704259 -5.727326 -0.181197 0.284827 3.349965 0.068777 0.180424 2.094454 0.043116 0.144199 1.675574 0.033961 0.108049 1.256689 0.025074 -0.825001 19.141527 0.016730 -0.876050 -5.804874 0.207355 0.130773 1.446517 10.887450 3.639740 -6.166115 74.519753 2.644917 31.253667 -8.476483 0.162059 0.828504 0.080282 -1.474660 1.057453 -10.699945 -4.410232 -5.698209 -74.006179 -4.946161 21.931193 6.171452 -2.256837 4.674573 -8.885885 -13.980854 9.926997 -3.715953 -6.966860 -0.711200 -0.606809 3.560372 -3.295857 1.677287 -0.020120 0.014686 -0.071177 7.454721 8.036293 4.021615 11.335835 0.918199 0.769907 -1.139744 -3.131691 -1.972709 0.019118 0.008614 0.003572
-8.512195 95.821992 11.497276 -77.725330 -5.701002 -0.166524 0.280333 3.341981 0.056711 0.177191 2.087687 0.041833 0.141618 1.670160 0.032947 0.106116 1.252628 0.024321 -0.835327 19.163643 -0.009628 -0.880996 -5.780114 0.181870 0.136046 1.462168 10.864831 3.582826 -6.167073 74.556742 2.598718 31.251661 -8.511827 0.179155 0.928063 0.067952 -1.486029 1.073271 -10.722510 -4.354878 -5.706797 -74.054396 -4.951807 22.049118 6.151005 -2.280659 4.676772 -8.846951 -13.985337 9.821590 -3.779709 -7.014277 -0.598078 -0.612097 3.655267 -3.329472 1.785999 -0.027478 0.003145 -0.084637 7.496107 8.029832 3.980475 11.279415 0.902678 0.750011 -1.103723 -3.144181 -1.933339 0.026271 0.015484 0.009143
-8.518778 95.820880 11.553569 -77.760411 -5.671541 -0.162699 0.264574 3.323787 0.054859 0.164527 2.076760 0.040889 0.131491 1.661417 0.032231 0.098524 1.246070 0.023814 -0.820248 19.179884 -0.029784 -0.860462 -5.762172 0.157094 0.121104 1.481858 10.869281 3.620747 -6.160559 74.556022 2.551377 31.266226 -8.557223 0.206813 0.949390 0.101998 -1.498338 1.095447 -10.692436 -4.297313 -5.688865 -74.130149 -4.997750 22.079342 6.118365 -2.271328 4.704203 -8.887773 -13.999640 9.761235 -3.833087 -6.980915 -0.556585 -0.614747 3.661627 -3.342015 1.902146 -0.023749 -0.003262 -0.094203 7.597895 8.021627 3.976866 11.214501 0.901306 0.715240 -1.108816 -3.168427 -1.904371 0.028636 0.017259 0.016603
-8.526866 95.814867 11.629865 -77.777002 -5.653372 -0.166644 0.246741 3.311871 0.053473 0.152050 2.070246 0.040192 0.121512 1.656206 0.031711 0.091042 1.242161 0.023452 -0.802803 19.202642 -0.047780 -0.837945 -5.736941 0.134056 0.056886 1.487060 10.855976 3.694061 -6.132486 74.561312 2.547376 31.272712 -8.580530 0.168106 0.956067 0.115480 -1.583796 1.118312 -10.708324 -4.236001 -5.670700 -74.135620 -5.068122 22.125116 6.077503 -2.235568 4.719849 -8.918907 -13.979570 9.736633 -3.903235 -7.055828 -0.553521 -0.599855 3.751908 -3.330596 2.058059 -0.026954 -0.010401 -0.116231 7.667994 8.000421 3.974890 11.195141 0.961442 0.675162 -1.150925 -3.240147 -1.852013 0.028799 0.022054 0.016272
-8.508763 95.811306 11.735624 -77.793369 -5.655036 -0.141026 0.222885 3.310351 0.036038 0.140335 2.071987 0.037514 0.112149 1.657597 0.029602 0.084026 1.243203 0.021896 -0.808983 19.224031 -0.051946 -0.843607 -5.712942 0.131074 0.008543 1.460776 10.841372 3.651615 -6.123609 74.574411 2.513452 31.343143 -8.589165 0.177134 0.959403 0.072895 -1.603446 1.105638 -10.724397 -4.263501 -5.638269 -74.143568 -5.055743 22.129246 6.080376 -2.236360 4.766139 -8.929188 -13.995758 9.691842 -4.049827 -7.089414 -0.519460 -0.546956 3.821082 -3.311079 2.227807 -0.032353 -0.021595 -0.140985 7.699559 7.957226 3.902847 11.077451 1.086489 0.654756 -1.065469 -3.331940 -1.775373 0.032453 0.028337 0.017396
-8.502120 95.812800 11.876849 -77.804428 -5.677826 -0.125504 0.215071 3.314612 0.032171 0.136587 2.072325 0.035151 0.109157 1.657867 0.027723 0.081787 1.243405 0.020494 -0.867519 19.260216 -0.058220 -0.904271 -5.671788 0.137906 0.002207 1.481245 10.808408 3.630547 -6.115904 74.577125 2.445716 31.311615 -8.626951 0.205915 0.921379 0.103372 -1.664525 1.080799 -10.731100 -4.226330 -5.606491 -74.158033 -5.076074 22.167680 6.097450 -2.195701 4.803824 -8.989783 -14.051353 9.631780 -4.220771 -7.159295 -0.393798 -0.534978 3.961929 -3.349560 2.475624 -0.030816 -0.025770 -0.168940 7.682239 7.971296 3.807328 11.122170 1.157835 0.664940 -1.089938 -3.399534 -1.703645 0.029855 0.027376 0.016552
-8.519571 95.806401 12.047956 -77.867089 -5.694880 -0.108119 0.212927 3.311769 0.033181 0.136558 2.068029 0.034120 0.109138 1.654430 0.026899 0.081775 1.240827 0.019877 -0.877472 19.297228 -0.077609 -0.910497 -5.630246 0.119686 0.018153 1.499758 10.749376 3.611263 -6.093609 74.598904 2.442823 31.153283 -8.636173 0.187219 0.980800 0.198550 -1.653744 1.072525 -10.738852 -4.154552 -5.602204 -74.196016 -5.078840 22.254971 6.136891 -2.209734 4.871712 -9.056645 -14.178040 9.506889 -4.437195 -7.341514 -0.146068 -0.527694 4.346020 -3.445221 2.783517 -0.035524 -0.036855 -0.209013 7.696777 8.007108 3.707287 11.107883 1.231189 0.648576 -1.037647 -3.494243 -1.614939 0.035757 0.025428 0.021678
-8.561106 95.791250 12.240244 -77.919663 -5.736191 -0.103155 0.218693 3.314637 0.024356 0.141466 2.069220 0.032908 0.113067 1.655383 0.025915 0.084724 1.241542 0.019129 -0.877406 19.320465 -0.095523 -0.906399 -5.604235 0.100716 0.010330 1.510892 10.754869 3.595189 -6.078739 74.599379 2.379863 30.857687 -8.720379 0.169663 0.994336 0.204900 -1.722984 1.093871 -10.711907 -4.061093 -5.631264 -74.238039 -5.095151 22.317068 6.146575 -2.182651 4.828796 -9.073887 -14.300885 9.371928 -4.635547 -7.322348 0.172858 -0.551335 4.510905 -3.553839 3.091082 -0.040142 -0.060298 -0.226895 7.770767 8.089721 3.628389 11.051802 1.275502 0.624396 -1.018797 -3.597586 -1.512494 0.041464 0.032513 0.021285
